<?xml version="1.0" encoding="UTF-8" standalone="no"?>
<!DOCTYPE svg PUBLIC "-//W3C//DTD SVG 1.1//EN" "http://www.w3.org/Graphics/SVG/1.1/DTD/svg11.dtd">
<svg width="100%" height="100%" viewBox="0 0 324 324" version="1.1" xmlns="http://www.w3.org/2000/svg" xmlns:xlink="http://www.w3.org/1999/xlink" xml:space="preserve" xmlns:serif="http://www.serif.com/" style="fill-rule:evenodd;clip-rule:evenodd;stroke-linejoin:round;stroke-miterlimit:1.41421;">
    <g transform="matrix(1,0,0,1,-478,-238)">
        <g id="logo">
            <g transform="matrix(0.538523,0,0,0.825858,449.771,209.813)">
                <ellipse cx="353.242" cy="230.291" rx="299.416" ry="195.242" style="fill:rgb(45,45,55);"/>
            </g>
            <path d="M640,450.351L683.605,475.527L640,500.702L596.395,475.527L640,450.351ZM596.395,425.176L640,450.351L596.395,475.527L552.789,450.351L552.789,349.649L596.395,374.824L552.789,349.649L596.395,324.473L596.395,425.176ZM727.211,450.351L683.605,475.527L640,450.351L683.605,425.176L683.605,374.824L727.211,400L683.605,374.824L727.211,349.649L727.211,450.351ZM596.395,425.176M683.605,324.473L727.211,349.649L683.605,374.824L640,349.649L596.395,374.824L596.395,324.473L640,349.649L683.605,324.473ZM640,349.649L596.395,324.473L640,299.298L683.605,324.473L640,349.649Z" style="fill:url(#_Linear1);"/>
            <clipPath id="_clip2">
                <path d="M640,450.351L683.605,475.527L640,500.702L596.395,475.527L640,450.351ZM596.395,425.176L640,450.351L596.395,475.527L552.789,450.351L552.789,349.649L596.395,374.824L552.789,349.649L596.395,324.473L596.395,425.176ZM727.211,450.351L683.605,475.527L640,450.351L683.605,425.176L683.605,374.824L727.211,400L683.605,374.824L727.211,349.649L727.211,450.351ZM596.395,425.176M683.605,324.473L727.211,349.649L683.605,374.824L640,349.649L596.395,374.824L596.395,324.473L640,349.649L683.605,324.473ZM640,349.649L596.395,324.473L640,299.298L683.605,324.473L640,349.649Z"/>
            </clipPath>
            <g clip-path="url(#_clip2)">
                <g transform="matrix(-0.718515,8.79927e-17,-8.79927e-17,-0.718515,1099.85,687.406)">
                    <path d="M640,450.351L683.605,475.527L640,500.702L596.395,475.527L640,450.351ZM596.395,425.176L640,450.351L596.395,475.527L552.789,450.351L552.789,349.649L596.395,374.824L552.789,349.649L596.395,324.473L596.395,425.176ZM727.211,450.351L683.605,475.527L640,450.351L683.605,425.176L683.605,374.824L727.211,400L683.605,374.824L727.211,349.649L727.211,450.351ZM596.395,425.176M683.605,324.473L727.211,349.649L683.605,374.824L640,349.649L596.395,374.824L596.395,324.473L640,349.649L683.605,324.473ZM640,349.649L596.395,324.473L640,299.298L683.605,324.473L640,349.649Z" style="fill:url(#_Linear3);"/>
                </g>
            </g>
        </g>
    </g>
    <defs>
        <linearGradient id="_Linear1" x1="0" y1="0" x2="1" y2="0" gradientUnits="userSpaceOnUse" gradientTransform="matrix(87.2109,151.553,-151.553,87.2109,596.395,324.473)"><stop offset="0" style="stop-color:rgb(241,255,0);stop-opacity:1"/><stop offset="0.5" style="stop-color:rgb(255,140,0);stop-opacity:1"/><stop offset="1" style="stop-color:rgb(255,0,128);stop-opacity:1"/></linearGradient>
        <linearGradient id="_Linear3" x1="0" y1="0" x2="1" y2="0" gradientUnits="userSpaceOnUse" gradientTransform="matrix(87.2109,151.553,-151.553,87.2109,596.395,324.473)"><stop offset="0" style="stop-color:rgb(241,255,0);stop-opacity:1"/><stop offset="0.5" style="stop-color:rgb(255,140,0);stop-opacity:1"/><stop offset="1" style="stop-color:rgb(255,0,128);stop-opacity:1"/></linearGradient>
    </defs>
</svg>
