<?xml version="1.0" encoding="utf-8"?>
<!-- Generator: Adobe Illustrator 15.1.0, SVG Export Plug-In . SVG Version: 6.00 Build 0)  -->
<!DOCTYPE svg PUBLIC "-//W3C//DTD SVG 1.1//EN" "http://www.w3.org/Graphics/SVG/1.1/DTD/svg11.dtd">
<svg version="1.1" id="Capa_1" xmlns="http://www.w3.org/2000/svg" xmlns:xlink="http://www.w3.org/1999/xlink" x="0px" y="0px"
	 width="268.832px" height="268.832px" viewBox="0 0 268.832 268.832" enable-background="new 0 0 268.832 268.832"
	 xml:space="preserve">
<g>
	<path fill="#BE1E2D" d="M265.171,83.661l-80-80c-4.881-4.881-12.797-4.881-17.678,0c-4.882,4.882-4.882,12.796,0,17.678L226.154,80
		H12.5C5.597,80,0,85.597,0,92.5C0,99.402,5.597,105,12.5,105h213.654l-58.659,58.661c-4.882,4.882-4.882,12.796,0,17.678
		c2.44,2.438,5.64,3.661,8.839,3.661s6.398-1.223,8.839-3.661l79.998-80C270.053,96.457,270.053,88.543,265.171,83.661z"/>
</g>
</svg>
